<?xml version="1.0" encoding="UTF-8"?>
<svg id="Layer_2" data-name="Layer 2" xmlns="http://www.w3.org/2000/svg" viewBox="0 0 680.07 651.38">
  <defs>
    <style>
      .cls-1 {
        fill: #b02425;
      }

      .cls-2 {
        fill: #0b588c;
      }

      .cls-3 {
        fill: #c72127;
      }

      .cls-4 {
        fill: #e30813;
      }

      .cls-5 {
        fill: #6c1a31;
      }
    </style>
  </defs>
  <g id="Layer_1-2" data-name="Layer 1">
    <g>
      <path class="cls-4" d="m515.19,475.41c-1.36-22.43-15.02-36.42-33.61-47.58v120.34c0,2.35-.45,4.56-1.35,6.64-.9,2.08-2.12,3.88-3.64,5.41s-3.31,2.72-5.35,3.58-4.23,1.29-6.58,1.29-4.54-.43-6.58-1.29c-2.04-.86-3.82-2.06-5.35-3.58s-2.72-3.33-3.58-5.41-1.29-4.29-1.29-6.64v-71.02c-.73-23.47-14.65-37.87-33.73-49.32v120.34c0,2.35-.43,4.56-1.29,6.64-.86,2.08-2.06,3.88-3.58,5.41s-3.31,2.72-5.35,3.58-4.23,1.29-6.58,1.29-4.54-.43-6.58-1.29c-2.04-.86-3.82-2.06-5.35-3.58s-2.72-3.33-3.58-5.41-1.29-4.29-1.29-6.64v-71.02c-.73-23.47-14.65-37.87-33.73-49.32v120.34c0,6.97,1.31,13.53,3.94,19.68,2.62,6.15,6.23,11.52,10.81,16.1,4.58,4.58,9.95,8.19,16.1,10.81.94.4,1.9.71,2.86,1.05,5.32,1.88,10.91,2.89,16.82,2.89,6.27,0,12.3-1.1,18.1-3.29,5.8-2.19,11.01-5.41,15.63-9.64,4.62,4.23,9.81,7.44,15.57,9.64,5.76,2.19,11.77,3.29,18.04,3.29,6.97,0,13.53-1.31,19.68-3.94,6.15-2.62,11.52-6.23,16.1-10.81,4.58-4.58,8.19-9.95,10.81-16.1,2.62-6.15,3.94-12.71,3.94-19.68v-42.88h.12v-28.14c-.02-.6-.08-1.16-.12-1.75Z"/>
      <path class="cls-4" d="m322.75,489.65c-2.08-7.44-4.99-14.38-8.76-20.8s-8.3-12.3-13.63-17.63c-5.33-5.33-11.2-9.87-17.63-13.63-6.05-3.54-12.56-6.31-19.51-8.35-.32,10.98-.68,24.92,13.68,45.46.31.45.58.88.91,1.33.14.19.25.37.39.55,4.09,4.45,7.43,9.55,9.94,15.36,2.82,6.54,4.23,13.5,4.23,20.86,0,.4-.05.78-.06,1.18.02,2.15-.1,4.33-.34,6.51-.65,4.51-1.82,8.85-3.62,12.99-2.83,6.49-6.66,12.17-11.5,17.04-4.83,4.87-10.54,8.73-17.1,11.56-4.86,2.1-9.96,3.36-15.28,3.89-.49.05-.99.06-1.48.1-1,.07-1.99.18-3,.2-.3,0-.61,0-.91,0-.11,0-.21.02-.32.02-.16,0-.3-.02-.46-.02-.4,0-.78.01-1.2-.01-.04,0-.08,0-.11,0-.6-.03-1.21-.08-1.82-.14-6.1-.39-11.89-1.7-17.33-4.06-6.5-2.82-12.18-6.66-17.04-11.52s-8.7-10.52-11.52-16.98c-2.82-6.46-4.23-13.38-4.23-20.74,0-.06,0-.13,0-.19,0,.06-.01.13-.02.19-1.16-25.07,2.76-55.67,25.18-82.19-5.38,1.86-10.51,4.15-15.36,6.97-6.46,3.76-12.36,8.3-17.69,13.63-5.33,5.33-9.89,11.2-13.69,17.63s-6.74,13.36-8.81,20.8c-2.08,7.44-3.11,15.16-3.11,23.15s1.04,15.69,3.11,23.09,5.01,14.34,8.81,20.8c3.8,6.46,8.36,12.36,13.69,17.69,5.33,5.33,11.22,9.89,17.69,13.69,6.46,3.8,13.4,6.74,20.8,8.81,7.4,2.08,15.1,3.11,23.09,3.11s15.71-1.04,23.15-3.11c7.44-2.08,14.38-5.01,20.8-8.81,6.42-3.8,12.3-8.36,17.63-13.69,5.33-5.33,9.87-11.22,13.63-17.69s6.68-13.4,8.76-20.8c2.08-7.4,3.11-15.1,3.11-23.09s-1.04-15.71-3.11-23.15Z"/>
      <path class="cls-4" d="m218.85,515.21c-.25-3.48.02-7.24,3.24-13.62.09-.19.17-.36.26-.54,4.58-9.41,2.81-14.68,2.11-18.92-.24-1.45-.54-2.62-.76-3.36,1.28.62,3.11,1.73,4.73,3.65,3.51,4.17,3.35,9.06,3.26,10.43.98-2.64,2.81-8.73.91-15.89-.88-3.33-2.32-5.93-3.55-7.74,2.79,1.22,10.56,5.05,15.8,13.96,2.62,4.46,3.83,8.88,4.33,12.72.68,5.23.03,9.35-.27,10.91.82-.64,1.84-1.6,2.75-2.94,1.04-1.53,1.55-3.03,1.84-4.3.72.81,1.39,1.68,1.98,2.62,1.29,2.03,2.14,4.27,2.62,6.69.29,2.6.18,5.5-.69,8.54-.56,1.97-2.49,8.35-8.9,12.33-2.14,1.33-4.29,2.09-6.23,2.51-.01,0-.03,0-.04,0-.36.08-.7.12-1.05.18-2.55.35-5.05.23-7.48-.39-2.57-.66-4.88-1.74-6.94-3.24-2.05-1.51-3.79-3.36-5.2-5.58-.9-1.41-1.58-2.94-2.08-4.55-.32-1.16-.55-2.33-.63-3.49Z"/>
      <path class="cls-4" d="m646.46,427.83h-.12v111.06c-15.66-26.76-31.32-53.53-46.98-80.29-2.64-4.73-9.24-15.06-22.13-22.59-13.6-7.95-31.95-8.18-31.95-8.18v168.52c18.56-11.09,32.21-24.97,33.73-47.15,0-.15.03-.28.04-.43v-57.24h-.04v-6.12l64.99,110.94h2.47c14.42-8.68,25.82-19.08,30.83-33.8,1.43-4.2,2.36-8.73,2.66-13.7.04-.58.1-1.15.12-1.75v-119.27h-33.61Z"/>
      <path class="cls-3" d="m186.61,525.35c-.98-4.03-1.54-8.2-1.54-12.55,0-.06,0-.13,0-.19,0,.06-.01.13-.02.19-.76-16.29.67-34.91,7.89-53.23,3.52-9.82,8.17-19.1,13.76-27.71-4.1,1.62-8.05,3.52-11.83,5.72-6.46,3.76-12.36,8.3-17.69,13.63-5.33,5.33-9.89,11.2-13.69,17.63s-6.74,13.36-8.81,20.8c-2.08,7.44-3.11,15.16-3.11,23.15s1.04,15.69,3.11,23.09,5.01,14.34,8.81,20.8c3.8,6.46,8.36,12.36,13.69,17.69,5.33,5.33,11.22,9.89,17.69,13.69,6.46,3.8,13.4,6.74,20.8,8.81,2.4.67,4.85,1.2,7.31,1.65-18.99-19.6-32.1-44.94-36.39-73.19Z"/>
      <path class="cls-5" d="m312.48,370.7c-1.55,18.15-9.12,28.82-12.85,33.32-7.88,9.49-17.31,13.93-29.48,19.66-15.06,7.09-18.8,5.67-31.31,11.97-3.4,1.71-16.9,8.74-28.27,20.48-19.16,19.79-24.22,37.79-25.52,56.67-1.34-28.94,4.07-65.25,36.91-94.14,15.05-12.41,24.12-13.65,36.51-16.42,15.73-3.39,19.76-19.29,19.5-34.59,5.49.59,11.09,1.15,16.77,1.65,6,.53,11.91,1,17.72,1.4Z"/>
      <path class="cls-3" d="m134.7,427.83H0c11.15,18.65,25.12,32.36,47.51,33.72.04,0,.08,0,.13,0,4.48,0,8.97,0,13.45,0,0,0,.01,0,.02,0h3.04v40.49h-.12v44.98c.02.6.08,1.16.12,1.75,1.35,22.38,14.96,36.35,33.49,47.51v-134.72h10.07c9,0,18,0,27,0h13.47v-33.72h-13.47Z"/>
      <path class="cls-2" d="m312.36,267.5c-10.69,20.83-30.33,26.69-49.39,33.79,12.99,4.3,14.92,7.02,14.93,20.75,0,15.92-.03,31.83,0,47.75.03,13.56-6.2,23.6-17.5,30.52-13.8,8.46-30.27,4.62-39.09-8.86-1.65-2.52-3.05-5.21-5.08-8.71,4.43,23.77,22.37,38.83,45.09,39,24.94.19,51.6-20.65,51.18-53.52-.41-31.83.12-63.66.21-95.5,0-1.4-.19-2.8-.36-5.22Z"/>
      <path class="cls-2" d="m295.96,212.94c-8.72,0-16.11,7.42-16.19,16.25-.08,8.62,7.28,16.14,16.13,16.49,8.07.32,16.59-7.79,16.82-16.03.24-8.31-8.18-16.71-16.76-16.7Z"/>
      <path class="cls-4" d="m493.5,203.15c-.77-2.15-3.43-10.43.26-19.85,3.12-7.97,8.99-12.11,11.11-13.46-.77,1.65-1.61,3.95-1.9,6.79-.63,6.1,1.66,10.84,2.81,12.88-.25-1.11-1.01-5.09,1.32-8.95,1.07-1.78,2.43-2.93,3.39-3.6-.08.63-.18,1.63-.18,2.84-.03,3.63-.84,8.26,4.46,15.6,3.46,4.8,4.16,7.84,4.41,10.72.41,4.75-1.55,10.09-5.49,13.4-2.27,1.91-4.57,2.61-5.63,2.92-1.44.42-6.11,1.59-11.25-.58-5.76-2.43-8.16-7.39-8.88-8.93-3.72-7.99-.25-15.73.32-16.95.22,1.08.83,3.19,2.63,5.12.92.98,1.88,1.63,2.63,2.05Z"/>
      <path class="cls-2" d="m582.98,332.54c-4.93,2.84-9.26,6.83-14.21,7.86-8.57,1.79-17.51,2.28-26.3,2.32-7.73.04-13.98-4.18-18.94-9.97-12.76-14.87-9.59-39.99,6.46-52.05,11.72-8.81,26.37-7.9,36.73,2.48,2.69,2.7,4.91,5.87,7.34,8.83.58-.56,1.15-1.11,1.73-1.67-4.83-14.75-10.63-28.72-27.99-33.36,5.87-13.27-1.87-22.59-8.27-32.53-.56.45-.75.53-.77.63-.14.84-.2,1.69-.36,2.53-2.93,15.29-8.79,29.1-24.7,34.41-15.85,5.29-34.53,32.55-32.22,52.92,1.11,9.77,1.31,19.64,7.67,27.94h-108.66v-6.1c0-17.8,0-35.6,0-53.41,0-36.4,0-72.8.01-109.19h0c0-11.29,0-46.66.1-106.08,0-2.73,1.36-5.87,3.05-8.09,3.3-4.32,7.28-8.11,10.86-11.99-12.23-.68-24.62-2.38-34.02-11.97-9.32-9.52-10.89-22.3-13.71-36.03v428.55c19.58-11.76,33.77-26.58,33.8-51.18h229.7c-17.58-11.45-28.2-25.55-27.3-44.84Z"/>
      <rect class="cls-1" x="61.58" y="637.77" width="29.66" height="4.35"/>
      <path class="cls-1" d="m122.32,642.16h8.73c-.33,1.15-.97,2.14-1.93,3.01-1.34,1.25-2.91,1.86-4.78,1.86-1.7,0-3.21-.54-4.48-1.6-1.3-1.11-2.08-2.46-2.39-4.07-.03-.24-.07-.48-.1-.65,0-.16-.01-.32-.02-.46,0-.08-.01-.16-.01-.23,0-.12,0-.24.02-.38,0-.09,0-.18.01-.25.02-.13.03-.26.04-.45v-.11c.04-.11.07-.23.09-.37.02-.08.04-.16.08-.3.07-.24.13-.44.2-.65.02-.07.05-.14.1-.25.03-.08.06-.15.09-.23.07-.12.14-.24.2-.35l.16-.29s.05-.09.08-.14c.01-.02.03-.05.05-.08.67-1.01,1.48-1.76,2.5-2.3,1.03-.57,2.16-.86,3.37-.86,1.87,0,3.43.6,4.74,1.82l1.37,1.37,3.14-3.03-1.47-1.47c-2.14-2.02-4.76-3.04-7.77-3.04-2,0-3.79.45-5.48,1.38-1.72.97-3.05,2.22-4.04,3.78-.07.1-.13.2-.28.41l-.58,1.16c-.09.19-.17.39-.29.72-.02.08-.05.16-.09.27-.07.19-.13.39-.18.59l-.24.92-.02.1c-.04.31-.08.62-.12,1.12,0,.12,0,.23-.02.36-.01.18-.02.36-.02.54,0,.17,0,.34.02.55,0,.13.02.27.03.56l.13.95c.51,2.64,1.82,4.87,3.89,6.66,2.13,1.75,4.58,2.64,7.29,2.64,3.1,0,5.8-1.11,8.03-3.29,2.21-2.21,3.33-4.91,3.33-8.03v-2.25h-13.38v4.35Z"/>
      <path class="cls-1" d="m165.9,628.62l-11.14,22.75h4.86l2.17-4.48h11.13l2.2,4.48h4.82l-11.14-22.75h-2.9Zm4.87,13.92h-6.84l3.42-6.98,3.42,6.98Z"/>
      <polygon class="cls-1" points="200.86 633.01 212.58 633.01 200.86 648.34 200.86 651.38 219.06 651.38 219.06 647.03 207.34 647.03 219.06 631.69 219.06 628.66 200.86 628.66 200.86 633.01"/>
      <path class="cls-1" d="m288.28,644.68c0,.45-.34.91-1.03,1.36-.85.59-1.97.92-3.29.98h-.41c-1.49,0-2.67-.3-3.6-.91-.54-.37-1.17-.93-1.17-1.51,0-.46.34-.94,1.02-1.42.95-.7,2.17-1.03,3.66-1.04l2.11.13v-4.48h-2.06c-1.47,0-2.73-.34-3.72-1-.67-.48-1.01-.95-1.01-1.41,0-.33.11-.83,1.11-1.46.93-.61,2.17-.92,3.66-.92,1,0,1.83.14,2.58.43.79.3,1.37.66,1.74,1.08l1.35,1.48,3.17-2.95-1.29-1.42c-.81-.95-1.87-1.65-3.33-2.19-1.31-.51-2.73-.77-4.21-.77-2.47,0-4.5.57-6.21,1.74-1.9,1.29-2.9,3.02-2.9,5.03,0,1.72.79,3.24,2.39,4.56-1.59,1.28-2.39,2.83-2.39,4.62,0,1.96.98,3.64,2.92,5,1.78,1.17,3.86,1.76,6.2,1.76h.6c2.24-.13,4.1-.74,5.69-1.85,1.77-1.21,2.74-2.87,2.79-4.8v-2.57h1.98v-4.35h-6.33v6.88Z"/>
      <polygon class="cls-1" points="349.99 651.38 367.77 651.38 367.77 647.03 354.34 647.03 354.34 642.16 367.77 642.16 367.77 637.81 354.34 637.81 354.34 633.01 367.77 633.01 367.77 628.66 349.99 628.66 349.99 651.38"/>
      <polygon class="cls-1" points="403.37 642.75 392.9 628.62 389.52 628.62 389.52 651.38 393.87 651.38 393.87 637.28 404.34 651.38 407.72 651.38 407.72 628.62 403.37 628.62 403.37 642.75"/>
      <polygon class="cls-1" points="429.5 651.38 447.28 651.38 447.28 647.03 433.85 647.03 433.85 642.16 447.28 642.16 447.28 637.81 433.85 637.81 433.85 633.01 447.28 633.01 447.28 628.66 429.5 628.66 429.5 651.38"/>
      <path class="cls-1" d="m485.4,640.16c1.29-1.29,1.94-2.9,1.94-4.77s-.64-3.43-1.95-4.74c-1.32-1.32-2.91-1.98-4.75-1.98h-11.62v22.71h4.35v-9.22h4.32l8.21,9.22h5.84l-8.62-9.67c.84-.33,1.6-.85,2.27-1.54Zm-3.07-3.06c-.49.49-.98.7-1.64.7h-7.31v-4.8h7.31c.64,0,1.1.2,1.6.7.49.49.7.99.7,1.68s-.22,1.27-.67,1.72Z"/>
      <path class="cls-1" d="m521.07,642.16h8.74c-.33,1.15-.97,2.14-1.93,3.01-1.34,1.25-2.9,1.86-4.78,1.86-1.7,0-3.21-.54-4.48-1.6-1.3-1.11-2.08-2.46-2.39-4.08-.03-.24-.07-.47-.1-.64,0-.16-.01-.32-.02-.5,0-.07,0-.13,0-.19,0-.12,0-.23.02-.35,0-.1.01-.21.01-.29.02-.13.03-.26.04-.38v-.18c.04-.11.07-.23.1-.34.02-.1.04-.19.08-.32.07-.24.13-.44.2-.64.03-.08.06-.15.09-.23.04-.09.07-.18.11-.26.07-.12.14-.24.21-.35l.16-.28s.05-.09.07-.13c.01-.02.03-.06.05-.09.67-1.01,1.48-1.76,2.5-2.3,1.03-.57,2.16-.86,3.37-.86,1.87,0,3.43.6,4.74,1.82l1.37,1.37,3.14-3.03-1.47-1.47c-2.14-2.02-4.76-3.04-7.77-3.04-2,0-3.79.45-5.48,1.38-1.72.97-3.05,2.22-4.04,3.79-.06.1-.13.2-.28.4l-.58,1.18c-.08.19-.17.38-.29.71-.02.06-.04.12-.08.25-.07.19-.13.39-.19.6l-.24.92-.03.17c-.04.29-.07.58-.11,1.05,0,.11,0,.21-.02.35-.01.18-.02.36-.02.54,0,.17,0,.34.02.53,0,.13.02.28.03.58l.12.95c.51,2.64,1.82,4.88,3.89,6.66,2.13,1.75,4.59,2.64,7.29,2.64,3.1,0,5.8-1.11,8.03-3.29,2.21-2.21,3.33-4.91,3.33-8.03v-2.25h-13.38v4.35Z"/>
      <polygon class="cls-1" points="568.37 636.89 560.35 628.66 554.27 628.66 566.2 640.86 566.2 651.38 570.55 651.38 570.55 640.9 582.52 628.66 576.43 628.66 568.37 636.89"/>
      <rect class="cls-1" x="602.3" y="637.77" width="29.66" height="4.35"/>
    </g>
  </g>
</svg>